<?xml version="1.0" standalone="no"?>
<!DOCTYPE svg PUBLIC "-//W3C//DTD SVG 20010904//EN"
 "http://www.w3.org/TR/2001/REC-SVG-20010904/DTD/svg10.dtd">
<svg version="1.0" xmlns="http://www.w3.org/2000/svg"
 width="1024.000000pt" height="1024.000000pt" viewBox="0 0 1024.000000 1024.000000"
 preserveAspectRatio="xMidYMid meet">
<metadata>
Created by potrace 1.14, written by Peter Selinger 2001-2017
</metadata>
<g transform="translate(0.000000,1024.000000) scale(0.100000,-0.100000)"
fill="#000000" stroke="none">
<path d="M0 5120 l0 -5120 5120 0 5120 0 0 5120 0 5120 -5120 0 -5120 0 0
-5120z m5235 4565 c33 -8 110 -40 170 -70 l110 -55 115 1 c183 1 296 -41 417
-155 84 -79 140 -171 248 -408 45 -98 84 -180 87 -183 3 -4 37 9 74 28 147 74
349 138 480 152 75 8 172 -9 241 -42 137 -64 248 -288 290 -578 45 -321 -44
-680 -232 -934 -30 -41 -55 -77 -55 -81 0 -5 35 -32 78 -61 501 -341 856 -784
1116 -1396 117 -275 190 -574 216 -878 20 -242 6 -694 -26 -848 -5 -26 -4 -27
38 -27 53 0 320 -18 368 -25 19 -2 71 -9 115 -15 128 -16 315 -47 321 -52 3
-3 -31 -124 -75 -269 -150 -496 -161 -534 -161 -557 0 -13 32 -73 72 -135 l71
-111 -59 -54 c-32 -29 -110 -96 -173 -149 l-113 -96 6 -41 c4 -23 20 -113 36
-201 60 -330 91 -507 88 -510 -2 -1 -84 6 -183 16 -99 10 -203 18 -232 18 -48
1 -54 -2 -87 -41 -64 -74 -61 -93 35 -253 64 -108 98 -212 106 -328 15 -240
-55 -415 -197 -487 -106 -54 -307 -44 -502 26 -88 32 -220 98 -242 123 -15 16
-15 20 1 51 9 19 19 46 22 61 l6 27 90 -43 c117 -56 244 -100 346 -121 235
-47 328 45 329 328 0 126 -55 269 -152 396 -40 51 -41 55 -40 128 0 46 5 81
14 92 7 9 16 21 20 27 24 31 88 117 118 158 41 54 34 53 214 32 71 -8 131 -13
134 -11 2 3 -7 65 -22 138 -38 196 -76 428 -76 469 0 32 6 41 63 84 34 27 103
85 154 129 l92 80 -21 35 c-12 20 -38 61 -59 91 l-37 56 69 229 c38 127 87
284 109 350 22 66 40 126 40 133 0 9 -94 12 -436 12 -399 0 -436 1 -430 16 9
23 32 179 47 309 20 184 16 603 -7 770 -28 199 -134 575 -179 638 -16 22 -16
22 -12 -13 3 -19 12 -64 20 -100 67 -280 93 -562 83 -880 -10 -286 -22 -394
-25 -205 -6 501 -96 921 -288 1355 -96 215 -213 426 -222 399 -2 -7 1 -15 8
-17 6 -2 11 -15 11 -28 0 -14 5 -34 10 -44 15 -29 -2 -33 -78 -20 l-68 11 0
52 c-1 64 -11 152 -22 192 -8 26 -4 37 33 85 23 30 62 87 87 126 l46 71 -92
37 c-50 21 -119 50 -153 64 -39 16 -63 32 -63 41 0 19 -66 220 -79 240 -11 16
-7 19 -93 -53 -46 -38 -48 -38 -92 -27 -100 25 -177 6 -254 -63 -38 -35 -42
-36 -116 -36 -59 0 -76 -3 -76 -14 0 -8 5 -18 10 -21 6 -4 8 -16 5 -28 -5 -17
-4 -19 4 -7 8 12 11 12 17 -4 4 -11 -1 -28 -13 -45 -25 -32 -63 -107 -74 -141
-4 -15 -8 -18 -8 -8 -1 9 4 29 11 45 6 15 11 31 10 36 -1 4 3 7 8 7 17 0 11
28 -7 40 -15 8 -13 9 10 6 15 -3 27 0 27 5 0 5 -4 9 -8 9 -17 0 -52 42 -45 53
4 7 8 16 8 21 0 5 7 11 15 13 13 4 13 3 0 -6 -10 -7 -11 -11 -2 -11 6 0 12
-12 13 -27 l1 -28 7 25 c4 15 3 28 -3 32 -6 4 -7 8 -2 8 6 0 0 9 -12 20 -26
24 -32 25 -32 3 0 -9 -3 -14 -6 -10 -5 5 -9 27 -13 80 -2 21 -21 3 -22 -20 -1
-20 -3 -22 -6 -8 -15 74 -14 71 -25 51 -7 -13 -7 -20 2 -26 6 -4 10 -18 8 -31
-3 -21 -5 -19 -17 14 -11 34 -11 40 5 58 29 32 8 33 -87 4 -57 -17 -124 -29
-180 -33 l-89 -5 0 55 0 55 89 17 c184 33 374 112 502 207 133 98 291 291 351
429 36 81 75 204 95 300 24 118 24 345 0 460 -63 291 -147 406 -307 418 -124
9 -260 -32 -539 -162 -90 -42 -165 -75 -167 -74 -1 2 -16 41 -34 88 -18 47
-62 153 -98 235 -169 384 -260 474 -502 495 -98 9 -179 31 -360 95 -204 73
-331 59 -492 -55 -209 -148 -258 -179 -338 -210 -47 -19 -96 -41 -109 -49 -29
-19 -72 -111 -105 -223 l-24 -83 -118 -5 -119 -5 -19 -42 c-19 -42 -36 -56
-36 -30 0 7 -6 21 -12 30 -12 15 -20 16 -73 6 -190 -35 -419 -142 -575 -269
-192 -155 -330 -432 -330 -660 0 -116 45 -272 110 -381 29 -50 42 -85 50 -136
5 -37 12 -84 16 -103 l7 -35 -43 40 c-98 93 -184 234 -230 380 -32 99 -39 311
-16 421 31 141 134 323 268 470 217 237 609 401 963 404 l50 0 27 88 c31 102
85 188 143 230 22 16 78 44 124 62 50 20 119 59 170 96 194 142 236 168 315
196 95 33 222 38 321 13z m30 -251 c55 -19 133 -46 174 -60 40 -14 131 -34
201 -44 70 -10 143 -25 161 -33 50 -21 97 -80 146 -183 45 -95 124 -297 118
-302 -2 -2 -25 6 -52 18 -70 32 -127 49 -223 66 -179 32 -242 37 -460 38 -177
2 -224 5 -222 15 1 7 -1 10 -6 7 -19 -11 -64 63 -82 136 -23 88 31 178 106
178 22 0 26 3 14 10 -21 14 108 13 148 -1 17 -6 37 -9 43 -7 7 2 -21 15 -62
27 -115 37 -129 43 -124 50 2 4 -20 15 -50 25 -81 25 -117 13 -255 -89 -98
-72 -186 -122 -285 -160 -103 -40 -117 -57 -144 -172 -10 -41 -17 -53 -32 -53
-24 0 -24 7 6 115 28 104 39 116 147 159 87 36 174 88 285 173 188 144 245
156 448 87z m488 -614 c107 -23 236 -61 308 -92 45 -19 47 -22 67 -91 19 -64
37 -136 56 -221 7 -28 6 -29 -25 -22 -41 8 -42 10 -79 126 -45 142 -57 164
-93 179 -162 65 -273 91 -462 111 -60 7 -121 13 -135 15 -14 2 -35 4 -47 4
-13 1 -23 6 -23 12 0 19 316 4 433 -21z m-1478 -25 c138 -7 166 -11 295 -41
132 -30 291 -84 297 -101 3 -6 -5 -29 -16 -50 -11 -21 -25 -50 -30 -65 -8 -20
-15 -25 -30 -21 -12 3 -21 10 -21 15 0 5 -4 6 -10 3 -5 -3 -10 -1 -10 5 0 7
-8 9 -20 5 -25 -8 -92 13 -103 31 -4 8 -13 14 -20 14 -8 0 -6 -4 3 -11 12 -8
9 -9 -10 -5 -211 53 -391 72 -510 53 -94 -14 -76 -24 57 -30 73 -4 180 -17
248 -31 117 -24 369 -98 510 -150 l70 -25 -100 -3 c-161 -4 -225 0 -225 13 0
4 -12 9 -27 12 -16 3 -48 11 -73 17 -110 27 -202 27 -312 -1 -43 -11 -58 -41
-34 -68 16 -17 22 -41 10 -41 -3 0 -15 5 -26 11 -19 10 -20 9 -16 -15 l5 -25
-30 21 c-36 26 -133 36 -166 18 -28 -15 -54 -72 -38 -82 14 -8 9 -13 -18 -22
-18 -5 -21 -2 -20 21 0 36 -31 42 -68 13 -28 -22 -36 -49 -14 -51 6 -1 -4 -4
-23 -8 -27 -5 -37 -2 -42 11 -22 55 -118 61 -172 11 -22 -20 -27 -32 -24 -59
2 -18 0 -30 -5 -27 -5 3 -7 25 -4 49 3 29 1 44 -7 45 -7 0 -6 2 2 6 20 8 14
26 -8 20 -13 -3 -20 0 -20 9 0 8 -4 14 -9 14 -5 0 -11 10 -13 23 -2 12 -9 21
-17 19 -29 -6 12 28 108 91 101 67 154 95 242 128 l54 20 -43 -6 c-24 -3 -71
-17 -103 -31 -33 -13 -64 -22 -69 -19 -4 3 -10 0 -12 -6 -2 -7 -17 -13 -33
-14 -24 -2 -17 3 30 26 33 15 89 38 125 50 36 12 70 26 76 30 6 5 14 7 18 4 3
-3 2 0 -2 6 -6 7 -41 2 -108 -15 -187 -48 -346 -125 -453 -221 -39 -36 -79
-65 -87 -65 -21 0 -7 19 23 31 14 5 23 13 19 16 -9 9 75 93 94 93 8 0 29 12
45 26 l30 26 -32 -21 c-34 -23 -48 -27 -38 -11 12 19 -7 10 -50 -26 -24 -19
-62 -59 -85 -89 -38 -50 -67 -72 -78 -61 -2 3 16 36 41 73 53 79 148 175 227
228 90 61 325 166 405 181 l30 5 34 -121 c19 -66 37 -123 41 -125 14 -8 28 18
75 140 25 65 50 124 56 131 6 7 28 10 57 8 26 -1 97 -6 157 -9z m2826 -149
c44 -101 86 -395 74 -531 -7 -91 -30 -208 -52 -275 -51 -152 -158 -313 -272
-407 -69 -56 -247 -153 -284 -153 -12 -1 -40 -7 -62 -15 -21 -8 -41 -13 -43
-11 -1 2 26 24 61 49 35 25 109 89 165 142 111 106 185 207 251 345 50 103
103 305 99 372 -2 25 1 44 5 41 4 -3 7 16 5 41 l-3 45 -30 -20 c-89 -59 -352
-160 -450 -173 l-40 -6 35 11 c92 28 226 85 249 106 l26 23 -55 -19 c-99 -36
-241 -67 -160 -36 50 19 27 18 -81 -5 -164 -34 -274 -43 -449 -37 -167 6 -242
19 -237 39 1 7 -7 13 -18 15 -95 16 -227 52 -395 105 -81 26 -538 204 -549
214 -5 5 40 113 49 119 5 3 80 -28 168 -69 370 -172 567 -233 874 -270 269
-34 555 -12 726 54 187 72 333 202 357 318 4 17 9 32 11 32 3 0 14 -20 25 -44z
m-2834 -322 c-3 -3 -12 -4 -19 -1 -8 3 -5 6 6 6 11 1 17 -2 13 -5z m-787 -23
c0 -14 -29 -21 -36 -9 -4 7 -3 8 4 4 7 -4 12 -2 12 3 0 6 5 11 10 11 6 0 10
-4 10 -9z m397 -97 c-3 -3 -12 -4 -19 -1 -8 3 -5 6 6 6 11 1 17 -2 13 -5z
m-667 -49 c-13 -14 -29 -25 -35 -25 -6 0 -21 -10 -33 -22 -48 -52 -35 -275 25
-425 28 -72 87 -178 103 -188 6 -3 15 -16 21 -28 21 -44 -101 95 -136 154 -78
134 -115 332 -85 457 6 29 13 52 13 52 1 0 29 11 62 25 78 32 95 32 65 0z
m1096 -242 c-3 -10 -15 -67 -27 -128 -11 -60 -22 -111 -23 -113 -2 -1 -19 5
-39 13 -20 8 -47 15 -61 15 -28 0 -28 0 11 128 26 86 26 85 93 95 49 8 51 7
46 -10z m682 -86 c33 -30 52 -70 52 -107 0 -44 -27 -38 -46 10 -9 22 -29 50
-44 63 -15 12 -31 33 -35 46 -7 22 -5 23 21 17 16 -4 40 -17 52 -29z m-208
-89 c11 -18 20 -50 20 -70 0 -37 -1 -38 -35 -38 l-35 0 0 48 c0 55 9 92 21 92
5 0 18 -15 29 -32z m1229 12 c78 -39 90 -74 137 -385 43 -288 41 -477 -11
-945 -30 -264 -31 -272 -55 -265 -9 3 -39 6 -67 6 -189 5 -275 -292 -125 -434
l30 -29 7 41 c6 36 9 39 28 32 12 -5 36 -7 54 -6 26 1 31 -1 28 -19 -2 -12 -6
-48 -9 -81 -4 -33 -8 -71 -10 -85 -3 -14 -9 -56 -15 -95 -6 -38 -22 -140 -36
-225 -13 -85 -27 -175 -30 -200 -12 -91 -56 -365 -60 -380 -2 -8 -7 -33 -10
-55 -12 -86 -76 -453 -97 -547 l-10 -48 -50 0 c-42 0 -49 3 -44 16 6 16 46
309 46 337 0 16 -56 21 -66 6 -10 -16 -74 -310 -74 -339 0 -5 19 -11 43 -13
23 -2 3 -4 -45 -5 l-87 -2 16 52 c26 90 81 308 78 308 -2 0 -16 -20 -31 -45
-14 -25 -28 -45 -31 -45 -2 0 -1 5 3 12 4 7 3 8 -5 4 -6 -4 -9 -16 -6 -27 4
-11 2 -19 -5 -19 -6 0 -10 3 -8 8 2 4 -9 20 -24 36 -15 16 -28 23 -28 17 0 -6
-17 -11 -40 -11 -22 0 -40 5 -40 10 0 6 -9 10 -20 10 -11 0 -20 5 -20 10 0 6
-9 10 -20 10 -11 0 -20 -4 -20 -10 0 -5 -9 -10 -20 -10 -11 0 -20 5 -20 10 0
6 -18 10 -40 10 -34 0 -40 3 -40 21 0 17 -5 20 -25 16 -14 -2 -23 -2 -21 1 3
2 1 14 -5 25 -6 11 -7 17 -1 13 19 -11 7 29 -15 51 -15 15 -20 29 -16 40 3 10
3 15 -2 11 -4 -4 -20 8 -34 27 -29 39 -88 85 -108 85 -22 0 -41 60 -69 217
-20 117 -24 162 -18 218 13 125 1 175 -60 250 -29 35 -41 65 -70 185 -20 79
-36 145 -36 147 0 1 -9 3 -20 3 -11 0 -20 -7 -20 -15 0 -8 -4 -15 -10 -15 -5
0 -10 7 -10 15 0 8 -4 15 -10 15 -5 0 -10 -6 -10 -13 0 -7 -14 -18 -31 -24
-31 -12 -31 -12 -27 17 3 17 1 30 -2 30 -7 0 -23 158 -24 237 -1 22 -4 39 -8
36 -5 -2 -8 -1 -8 4 0 4 -7 62 -15 128 -8 66 -15 137 -15 158 0 36 1 37 35 37
31 0 35 -3 43 -37 19 -77 35 -183 29 -190 -4 -3 -2 -12 4 -20 6 -7 8 -13 3
-13 -5 0 -3 -4 3 -8 7 -4 14 -17 16 -27 6 -42 84 -171 135 -227 97 -105 257
-164 417 -155 166 9 269 74 331 206 57 123 127 258 148 286 26 35 66 103 66
112 0 4 -12 -5 -27 -19 -79 -75 -313 -100 -497 -53 -106 26 -250 90 -241 106
4 5 3 9 -2 8 -21 -4 -34 2 -27 13 4 7 3 8 -4 4 -6 -4 -43 15 -81 41 l-70 48
41 7 c52 9 58 15 22 23 -16 4 -75 18 -132 32 -105 25 -143 25 -192 0 l-25 -13
2 104 c1 57 4 107 7 110 3 3 6 -2 6 -11 0 -10 6 -17 13 -17 8 0 28 -17 45 -39
113 -141 368 -186 526 -93 l31 18 1 -135 c0 -81 5 -144 11 -156 10 -16 13 -17
17 -5 12 34 37 175 47 267 9 77 18 112 44 163 18 36 40 88 48 116 20 68 22
290 3 369 -8 33 -13 61 -11 63 2 2 24 -5 49 -17 25 -11 47 -17 50 -13 10 19
17 129 10 192 -9 98 -50 165 -121 200 l-52 25 0 108 c-1 79 2 107 12 107 6 0
59 -7 117 -15 112 -16 211 -41 303 -75 l57 -21 -1 -92 0 -92 -59 -28 c-43 -21
-66 -39 -89 -73 -32 -50 -61 -156 -61 -229 0 -42 2 -45 19 -35 29 15 29 14 14
-42 -40 -155 -37 -378 7 -518 22 -67 110 -253 117 -246 3 2 0 20 -5 40 -9 32
-8 36 9 36 25 0 24 8 -6 36 -14 13 -25 30 -25 38 0 12 9 10 43 -9 24 -14 58
-25 80 -25 29 0 37 -4 37 -18 0 -10 -15 -104 -34 -208 -41 -227 -74 -408 -81
-449 -3 -16 -7 -39 -10 -50 -2 -11 -7 -42 -10 -70 -4 -27 -13 -84 -21 -125 -8
-41 -14 -87 -14 -102 0 -26 -3 -28 -42 -28 -90 -1 -188 -75 -236 -178 -37 -81
-36 -189 2 -266 34 -69 93 -121 157 -137 26 -7 46 -15 44 -19 -4 -6 -29 -250
-39 -382 -3 -43 -1 -68 5 -68 6 0 8 4 4 9 -3 5 1 16 9 24 8 8 13 17 10 19 -4
4 12 63 45 173 5 17 19 81 31 144 19 104 25 118 60 158 57 65 115 219 115 303
-1 71 -27 136 -66 164 -18 12 -21 21 -16 53 4 21 13 90 21 153 9 63 18 133 21
155 42 316 58 417 79 510 13 61 27 140 31 176 6 66 7 67 54 96 60 38 112 102
142 178 12 33 27 66 32 72 5 7 12 80 15 163 4 119 2 153 -9 167 -12 15 -12 16
1 8 12 -7 13 -6 3 6 -9 12 -52 130 -53 147 0 9 44 -2 89 -23 30 -14 56 -24 58
-22 5 6 -55 212 -81 274 -14 37 -27 53 -39 53 -60 0 -294 -78 -365 -122 -18
-11 -36 -18 -39 -15 -14 15 12 40 67 63 l60 27 0 98 c0 55 2 99 5 99 11 0 61
-29 128 -74 38 -25 77 -46 87 -46 20 0 20 14 -6 173 -8 48 -14 89 -14 92 0 9
9 6 49 -15z m250 -85 c32 -16 45 -40 33 -61 -6 -11 -18 -4 -52 31 -47 47 -38
60 19 30z m-2142 -42 c1 -20 -83 -83 -110 -83 -15 0 -14 4 5 34 37 56 102 86
105 49z m583 -5 c-14 -6 -39 -17 -55 -25 -61 -26 -135 -120 -196 -246 -24 -49
-29 -55 -23 -27 11 57 53 152 89 202 33 45 94 83 159 99 45 10 55 9 26 -3z
m-466 -20 c19 -17 23 -27 17 -38 -6 -8 -11 -12 -13 -10 -2 3 -16 20 -32 38
-23 24 -26 32 -13 32 9 0 27 -10 41 -22z m896 -79 c84 -46 110 -66 110 -86 0
-8 -18 0 -47 21 -27 18 -76 48 -110 65 -35 17 -63 33 -63 36 0 14 43 0 110
-36z m-1109 -52 c22 -17 21 -87 -1 -87 -19 0 -40 40 -40 75 0 27 16 32 41 12z
m58 -127 l35 -30 -34 10 c-19 5 -43 19 -54 30 -20 20 -20 20 -1 20 11 -1 36
-14 54 -30z m696 -20 c13 0 6 -7 -20 -19 -22 -10 -61 -40 -86 -65 -112 -113
-155 -282 -111 -430 l17 -59 30 47 c28 44 51 62 39 31 -11 -28 18 -77 52 -91
38 -16 139 -17 169 -3 18 9 18 9 -3 5 -17 -3 -32 4 -52 27 -16 18 -30 34 -30
37 0 3 16 14 36 25 55 30 112 101 130 163 12 42 20 53 32 49 10 -3 28 -9 41
-13 l24 -7 -8 69 c-8 82 -31 129 -80 172 -20 18 -31 32 -24 32 6 0 58 -18 114
-41 l103 -41 22 -56 c32 -80 40 -282 15 -368 -23 -80 -49 -128 -98 -181 -77
-83 -174 -115 -283 -93 -74 15 -105 31 -161 83 -179 165 -182 485 -5 687 42
49 48 52 81 46 20 -3 45 -6 56 -6z m-225 -14 c0 -2 -8 -10 -17 -17 -16 -13
-17 -12 -4 4 13 16 21 21 21 13z m-426 -54 l49 -5 -7 -66 c-3 -36 -6 -82 -6
-100 l0 -35 -33 32 c-18 17 -46 34 -62 38 l-30 5 3 75 c3 66 6 75 20 69 9 -4
39 -10 66 -13z m807 -91 c34 -35 36 -59 8 -95 -27 -34 -71 -35 -104 -1 -31 30
-32 71 -3 102 29 31 64 29 99 -6z m1001 -14 c53 -85 78 -242 58 -364 -26 -156
-140 -283 -255 -283 -75 0 -155 56 -155 110 l0 30 63 0 c72 0 84 6 61 31 -19
21 -11 39 41 89 20 19 45 55 56 79 19 42 20 43 39 26 18 -17 20 -17 26 -1 7
19 0 82 -16 137 -16 56 -67 119 -111 138 -21 9 -39 19 -39 23 0 4 26 9 58 13
31 4 62 8 67 10 6 2 26 4 45 4 31 1 38 -4 62 -42z m-1932 -82 c0 -3 -9 -22
-20 -42 -11 -21 -20 -43 -20 -50 0 -7 -12 -15 -27 -19 -16 -3 -34 -7 -40 -10
-19 -5 -15 27 7 64 21 34 100 79 100 57z m98 -38 c17 -18 19 -24 7 -24 -8 0
-15 6 -15 14 0 7 -4 13 -10 13 -5 0 -10 5 -10 10 0 15 4 13 28 -13z m1671 -13
c25 -32 26 -42 4 -66 -33 -37 -93 -10 -93 43 0 51 56 65 89 23z m-2662 -64
c43 -27 83 -50 88 -50 39 -1 27 -22 -67 -120 -56 -58 -123 -134 -150 -170 -26
-36 -57 -76 -69 -89 -62 -73 -122 -187 -87 -165 5 3 6 10 3 15 -4 5 -2 9 3 9
5 0 41 42 80 93 65 85 321 352 367 383 18 11 31 10 100 -11 44 -14 104 -28
133 -32 29 -3 55 -10 58 -14 11 -18 -8 -49 -29 -49 -28 0 -69 -28 -61 -41 3
-5 1 -8 -4 -7 -18 5 -86 -54 -238 -207 -140 -139 -153 -150 -170 -137 -19 14
-110 62 -118 62 -2 0 -7 -12 -11 -27 -9 -38 -65 -137 -118 -210 -34 -45 -53
-62 -77 -67 -18 -3 -85 -32 -149 -64 l-117 -58 42 -65 c24 -35 51 -73 62 -84
10 -11 29 -35 42 -54 22 -32 23 -37 11 -110 -6 -42 -11 -92 -11 -113 0 -34 -4
-38 -57 -68 -32 -18 -60 -34 -62 -36 -3 -2 8 -17 22 -32 l27 -29 -20 -67 c-12
-37 -32 -120 -45 -184 -20 -102 -27 -150 -41 -287 -2 -16 -6 -111 -10 -210
l-8 -180 -12 70 c-7 39 -17 154 -24 256 -12 184 -5 359 20 489 4 25 14 79 20
120 14 89 56 276 76 341 8 25 12 53 9 61 -4 9 -2 19 4 23 12 7 15 48 4 58 -10
10 -130 -324 -168 -468 -36 -134 -86 -428 -96 -561 -20 -260 5 -676 50 -856
l17 -68 -533 0 c-379 0 -533 -3 -533 -11 0 -6 15 -57 34 -112 19 -56 70 -215
114 -353 l78 -250 -69 -104 -70 -103 31 -26 c16 -14 78 -68 136 -120 l106 -93
-1 -197 c0 -108 -4 -250 -9 -316 -4 -66 -6 -122 -4 -124 2 -3 63 6 135 18 71
13 132 22 133 20 96 -111 191 -233 206 -265 12 -24 20 -61 20 -93 0 -45 -7
-64 -54 -145 -96 -162 -130 -310 -106 -457 13 -79 40 -151 68 -182 9 -11 35
-28 56 -39 128 -65 498 71 682 252 53 52 104 140 120 205 7 33 52 87 66 79 4
-3 61 -14 125 -25 65 -11 163 -33 218 -49 403 -118 1064 -246 1415 -275 438
-36 1092 -32 1445 11 338 40 609 93 995 195 129 34 244 63 256 66 18 4 23 -4
42 -73 12 -43 20 -79 19 -80 -1 -2 -88 -27 -192 -58 -412 -118 -867 -202
-1310 -241 -183 -15 -885 -19 -1080 -5 -518 37 -1023 124 -1460 250 -55 16
-169 47 -253 69 l-152 39 -27 -46 c-63 -110 -169 -222 -283 -299 -204 -138
-505 -212 -655 -163 -165 54 -247 205 -247 455 0 140 17 207 93 362 71 145 76
187 30 249 -52 73 -52 73 -254 53 -98 -10 -192 -20 -209 -23 l-30 -5 7 122 c3
67 11 160 16 207 5 47 12 158 15 247 l7 162 -159 154 -158 154 82 126 82 127
-100 322 c-118 377 -153 498 -148 503 6 6 236 43 373 60 139 17 427 35 568 35
89 0 98 2 93 18 -30 103 -49 384 -43 643 5 228 24 381 77 636 93 447 320 897
649 1288 69 82 240 265 247 265 2 0 38 -22 81 -50z m841 -74 c3 -3 0 -12 -7
-19 -6 -8 -8 -22 -5 -31 7 -19 54 -46 81 -47 15 0 14 -3 -5 -12 -19 -9 -30 -7
-58 8 -31 16 -84 86 -84 110 0 8 68 0 78 -9z m3333 -31 c53 -19 139 -83 158
-118 13 -24 11 -27 -20 -55 l-33 -30 -26 27 c-14 14 -24 29 -22 33 2 4 -4 5
-12 2 -8 -3 -17 2 -20 13 -8 25 -64 83 -81 83 -9 0 -4 -22 19 -77 64 -151 112
-375 115 -535 2 -76 -1 -92 -25 -138 -34 -65 -44 -167 -21 -221 13 -32 13 -46
2 -105 -11 -58 -83 -324 -90 -332 -1 -1 -22 8 -46 20 -24 13 -45 24 -47 25 -2
1 4 12 12 25 39 59 101 279 117 413 15 133 12 555 -5 675 -26 182 -47 251 -81
263 -18 8 -19 15 6 -79 16 -62 22 -120 26 -269 l5 -190 -21 32 c-20 31 -67 63
-93 63 -10 0 -12 36 -10 172 1 95 3 194 5 221 1 28 -2 47 -9 47 -23 0 -105
-62 -129 -98 -57 -86 -67 -138 -76 -397 -11 -319 -28 -424 -86 -540 -55 -109
-126 -170 -251 -215 -109 -40 -257 -16 -309 48 -7 9 -13 19 -13 22 0 4 35 5
79 2 180 -10 310 41 386 152 56 83 74 180 86 447 5 126 16 263 24 303 29 152
103 249 234 303 68 27 185 31 252 8z m-1012 -52 c36 -43 37 -51 14 -68 -16
-12 -20 -7 -40 43 -26 64 -26 62 -14 62 5 0 23 -17 40 -37z m-2100 -244 l1
-106 -42 -6 c-24 -3 -52 -9 -64 -12 -20 -6 -21 -1 -32 102 -7 59 -12 125 -12
146 0 35 2 37 33 37 18 0 48 8 67 19 l35 19 7 -47 c3 -25 7 -94 7 -152z m2313
135 c-6 -12 -9 -7 -9 16 0 23 3 28 9 16 5 -9 5 -23 0 -32z m-2955 4 c-3 -8 -6
-5 -6 6 -1 11 2 17 5 13 3 -3 4 -12 1 -19z m4019 -50 c37 -29 44 -38 44 -66 0
-23 0 -23 -24 -5 -14 10 -30 28 -37 40 -7 13 -20 25 -31 29 -10 3 -18 10 -18
15 0 17 37 9 66 -13z m-199 -10 c-3 -8 -6 -5 -6 6 -1 11 2 17 5 13 3 -3 4 -12
1 -19z m109 -3 c-9 -14 -14 -30 -11 -35 3 -5 1 -11 -4 -14 -5 -4 -13 4 -17 16
-5 16 -1 27 16 40 31 25 35 23 16 -7z m-1209 -157 c-2 -18 -4 -4 -4 32 0 36 2
50 4 33 2 -18 2 -48 0 -65z m463 82 c0 -5 -5 -10 -11 -10 -5 0 -7 5 -4 10 3 6
8 10 11 10 2 0 4 -4 4 -10z m-13 -82 c-2 -13 -4 -3 -4 22 0 25 2 35 4 23 2
-13 2 -33 0 -45z m788 -42 c38 -1 40 -2 47 -41 7 -44 13 -264 6 -270 -2 -2
-20 0 -41 5 -21 4 -46 6 -56 3 -16 -4 -19 6 -25 109 -3 62 -9 137 -13 167 l-6
53 24 -13 c13 -7 42 -13 64 -13z m-820 -46 c-16 -4 -39 -8 -50 -8 l-20 -1 20
9 c11 5 34 8 50 8 l30 0 -30 -8z m-2429 -35 c37 -29 57 -66 52 -99 -2 -17 -11
-10 -46 36 -46 62 -67 78 -105 78 -29 0 -47 -20 -72 -80 -21 -49 -41 -69 -67
-70 -14 0 -16 7 -12 43 6 51 25 82 67 108 46 29 134 21 183 -16z m2908 -46
c30 -24 48 -61 40 -82 -4 -10 -13 -7 -36 14 -16 16 -34 29 -40 29 -5 0 -6 9
-3 20 5 16 2 20 -14 20 -12 0 -21 5 -21 10 0 18 46 11 74 -11z m-119 -8 c3 -5
1 -12 -5 -16 -14 -9 -13 -98 2 -113 6 -6 9 -14 5 -18 -13 -14 -57 45 -57 78 0
49 37 96 55 69z m-2099 -187 c121 -59 259 -93 409 -102 l120 -7 -73 -74 c-72
-71 -72 -81 1 -44 31 16 32 14 13 -31 -39 -92 -132 -146 -254 -146 -167 0
-298 74 -363 202 -33 66 -37 89 -11 66 35 -32 123 -78 188 -97 36 -12 69 -21
72 -21 4 0 -20 17 -53 37 -130 81 -228 163 -244 206 -5 12 -11 50 -15 85 l-7
63 63 -47 c34 -25 104 -66 154 -90z m-1604 73 c97 -49 165 -110 226 -202 59
-87 84 -158 112 -320 36 -205 97 -364 187 -487 38 -53 84 -84 158 -109 l50
-17 -38 -7 c-55 -11 -115 2 -191 40 -53 26 -66 30 -62 17 4 -9 -14 4 -39 30
-25 26 -45 53 -45 60 0 7 10 2 21 -12 l21 -25 -15 25 c-8 14 -20 24 -27 22
-14 -3 -59 98 -104 231 -56 165 -60 186 -42 206 92 102 31 290 -103 317 -21 5
-38 18 -53 43 -43 69 -121 141 -152 141 -3 0 17 -33 43 -72 79 -121 78 -116
39 -148 l-33 -28 -32 69 c-17 38 -42 98 -53 133 -18 51 -27 65 -46 69 -16 3
-24 0 -24 -10 0 -20 79 -283 93 -308 5 -11 12 -47 13 -81 2 -34 12 -88 24
-120 12 -33 32 -96 45 -141 69 -241 132 -395 211 -514 49 -74 178 -209 200
-209 10 0 10 -5 -2 -27 -7 -16 -14 -36 -14 -45 0 -11 -8 -18 -19 -18 -19 0
-154 65 -182 88 -68 55 -106 95 -147 156 -48 72 -136 271 -167 379 -16 57 -16
60 4 107 24 55 25 78 10 133 -11 41 -69 112 -98 122 -10 3 -23 23 -30 44 -17
57 -31 272 -24 364 l6 79 -40 -20 c-45 -24 -57 -36 -70 -76 -12 -38 -22 -40
-57 -12 l-29 24 21 30 c26 36 107 89 165 108 25 8 76 13 128 11 77 -2 93 -6
161 -40z m2909 -1 c-7 -8 -10 -20 -7 -25 4 -5 2 -12 -3 -15 -5 -4 -8 4 -7 17
3 28 16 51 23 43 3 -3 0 -12 -6 -20z m970 -256 c-22 -241 -84 -391 -220 -532
l-84 -88 -59 0 c-32 0 -73 6 -91 13 -34 15 -97 64 -97 76 0 4 23 18 50 30 76
34 165 97 209 147 78 89 139 237 156 379 13 112 13 112 46 119 17 3 45 20 62
38 l32 33 3 -50 c2 -27 -1 -102 -7 -165z m-3187 194 c3 -8 2 -12 -4 -9 -6 3
-10 10 -10 16 0 14 7 11 14 -7z m2091 -37 c31 -31 56 -99 42 -113 -3 -3 -23 4
-44 14 -41 21 -58 46 -68 100 -6 28 -4 32 15 32 12 0 37 -15 55 -33z m-2035
-5 c0 -4 10 -8 21 -9 29 -2 37 -12 19 -23 -21 -13 -30 -12 -24 3 3 8 -4 13
-17 14 -25 2 -51 22 -43 34 6 10 44 -7 44 -19z m-1083 -14 c-3 -7 -5 -2 -5 12
0 14 2 19 5 13 2 -7 2 -19 0 -25z m4576 -7 c29 -28 41 -81 20 -88 -6 -2 -16 2
-21 9 -6 7 -29 34 -51 59 -23 25 -41 49 -41 52 0 15 69 -8 93 -32z m-148 -10
c-3 -6 -11 -11 -17 -11 -6 0 -6 6 2 15 14 17 26 13 15 -4z m365 9 c0 -5 -5
-10 -11 -10 -5 0 -7 5 -4 10 3 6 8 10 11 10 2 0 4 -4 4 -10z m-4785 -327 c6
-35 5 -43 -8 -43 -22 0 -30 91 -21 239 l9 126 6 -140 c3 -77 10 -159 14 -182z
m-167 295 c7 -7 12 -21 12 -32 0 -19 -2 -18 -13 4 -7 15 -25 28 -42 31 l-30 7
31 1 c16 0 35 -4 42 -11z m4897 -42 c-37 -48 -42 -46 -9 4 15 22 29 38 31 36
3 -3 -7 -21 -22 -40z m-4985 -6 c0 -39 -1 -40 -35 -40 -42 0 -43 9 -9 49 34
41 44 39 44 -9z m1484 -42 c3 -18 8 -67 11 -108 3 -41 18 -151 32 -245 14 -93
27 -186 29 -205 3 -19 9 -62 14 -95 21 -129 61 -462 85 -700 13 -137 29 -293
35 -345 11 -104 12 -146 6 -139 -5 4 -30 124 -60 284 -9 44 -25 123 -36 175
-24 112 -101 492 -164 815 -25 127 -54 302 -66 390 -11 88 -23 170 -25 183 -5
21 -3 22 64 22 l70 0 5 -32z m1916 -12 c0 -15 -18 -31 -26 -23 -7 7 7 37 17
37 5 0 9 -6 9 -14z m-2652 -34 c47 -30 67 -108 38 -148 -12 -16 -15 -16 -19
-4 -20 66 -43 115 -63 139 -13 16 -24 31 -24 34 0 8 43 -5 68 -21z m-741 -51
c12 -6 32 -11 45 -12 19 -1 17 -3 -10 -12 -29 -9 -36 -7 -58 14 -14 13 -31 33
-36 44 -10 19 -10 19 13 -1 13 -12 34 -27 46 -33z m4798 -73 c-4 -46 -20 -149
-36 -230 -51 -252 -102 -361 -229 -489 -103 -103 -195 -155 -347 -193 -123
-31 -193 -32 -326 -5 -149 30 -363 128 -375 171 -2 10 -8 15 -13 12 -5 -3 -14
-2 -20 2 -8 4 -7 9 2 15 10 6 8 9 -9 9 -13 0 -20 4 -17 10 3 6 15 10 26 10 13
0 18 4 13 12 -5 8 -2 9 9 5 10 -4 17 -1 18 6 0 9 2 9 6 -1 2 -6 9 -10 14 -6 5
3 9 0 9 -5 0 -6 7 -11 16 -11 8 0 12 -5 9 -11 -4 -6 -1 -9 6 -8 8 2 30 -4 49
-13 137 -66 236 -89 375 -89 131 0 220 24 335 89 36 20 79 43 95 50 37 16 92
68 111 104 8 16 13 53 13 95 -2 54 6 91 34 178 20 61 46 153 57 205 29 141 29
140 59 141 14 0 44 6 66 14 22 7 43 13 48 14 4 1 5 -36 2 -81z m-4712 -158 c4
-115 9 -166 22 -195 9 -22 30 -76 45 -120 83 -241 118 -321 213 -483 55 -96
58 -104 47 -132 -7 -16 -10 -46 -8 -66 l4 -36 -28 33 c-118 141 -218 320 -218
394 0 75 -12 116 -44 149 -17 18 -37 35 -43 37 -12 4 -19 24 -63 196 -29 110
-42 231 -35 308 l6 70 48 0 48 0 6 -155z m242 14 c35 -16 57 -42 70 -83 8 -27
8 -27 -66 38 -25 22 -56 45 -70 50 -24 10 -24 10 4 10 16 1 44 -6 62 -15z
m4540 -55 c17 -31 13 -49 -10 -49 -17 0 -54 69 -48 87 7 19 40 -2 58 -38z
m-4215 -4 c19 1 42 5 51 9 14 6 20 -5 34 -66 22 -90 71 -241 92 -282 70 -139
157 -232 268 -285 36 -17 65 -32 65 -34 0 -16 -42 -47 -64 -47 -15 0 -36 -5
-47 -10 -30 -17 -87 19 -167 105 -58 62 -83 101 -136 208 -36 74 -80 183 -99
247 -34 114 -54 199 -39 170 4 -10 20 -15 42 -15z m-461 -79 c-3 -93 2 -100
73 -92 59 6 75 -4 39 -24 -55 -29 -120 3 -152 74 -24 53 -24 71 3 95 31 29 40
17 37 -53z m4231 -111 c37 -19 70 -62 70 -91 0 -20 -5 -24 -30 -24 -24 0 -30
4 -30 21 0 12 -16 42 -36 65 -38 47 -29 58 26 29z m-2455 -51 c29 -20 75 -94
75 -120 0 -27 -22 -44 -28 -23 -3 8 -37 47 -76 86 -40 40 -67 75 -62 77 16 7
68 -5 91 -20z m952 -70 c38 -39 44 -51 41 -82 -6 -73 -61 -47 -119 56 -24 43
-28 57 -17 63 27 18 53 8 95 -37z m-1161 -83 c-16 -89 -15 -92 42 -125 57 -33
65 -46 28 -46 -37 0 -89 42 -118 95 -30 55 -33 77 -17 123 l11 32 30 -21 c27
-19 29 -26 24 -58z m-1658 -59 c2 -8 -8 -12 -27 -12 l-30 0 20 -46 c11 -26 18
-48 16 -50 -9 -9 -67 19 -67 33 0 8 10 37 21 64 20 47 23 49 42 36 12 -8 23
-19 25 -25z m4012 23 c0 -2 -9 -3 -19 -2 -11 0 -18 5 -15 9 4 6 34 0 34 -7z
m-3682 -30 c-3 -3 -9 2 -12 12 -6 14 -5 15 5 6 7 -7 10 -15 7 -18z m2510 -22
c-5 -26 -38 -29 -38 -4 0 15 6 21 21 21 14 0 19 -5 17 -17z m-2494 -9 c3 -8 2
-12 -4 -9 -6 3 -10 10 -10 16 0 14 7 11 14 -7z m4846 -225 c0 -11 -4 -17 -10
-14 -5 3 -10 15 -10 26 0 11 5 17 10 14 6 -3 10 -15 10 -26z m-4091 -67 c27
-20 58 -82 41 -82 -6 0 -15 11 -19 24 -13 33 -78 69 -118 64 -26 -3 -30 -1
-20 10 15 19 82 10 116 -16z m-572 -49 c20 -9 44 -30 54 -47 30 -49 22 -49
-22 -1 -23 25 -49 45 -58 45 -9 0 -23 5 -31 10 -27 17 18 12 57 -7z m-119 -40
c-5 -20 -8 -49 -6 -65 4 -24 0 -30 -20 -35 -15 -3 -27 -1 -33 8 -10 18 -1 61
17 75 8 6 14 16 14 22 0 8 24 29 37 32 1 0 -3 -16 -9 -37z m520 -5 c8 -11 10
-31 6 -58 -6 -37 -5 -41 12 -38 10 2 20 -4 22 -13 6 -29 -29 -16 -54 20 -41
60 -28 145 14 89z m1124 -78 c44 -13 92 -57 106 -100 9 -26 8 -31 -9 -40 -15
-9 -26 -6 -49 10 -17 12 -30 28 -30 35 0 8 -18 24 -39 35 -45 22 -55 35 -47
55 6 18 18 18 68 5z m-967 -60 c-8 -14 -72 -24 -92 -14 -13 6 -2 10 37 14 30
4 56 7 58 8 2 1 1 -2 -3 -8z m-670 -21 c26 -11 56 -19 66 -16 22 6 25 -3 7
-21 -27 -27 -84 -10 -112 33 -20 30 -20 30 39 4z m1468 -62 c17 -40 19 -53 10
-77 -13 -35 4 -55 61 -71 20 -5 36 -14 36 -19 0 -6 9 -10 21 -10 25 0 20 -23
-5 -28 -86 -17 -186 76 -186 172 0 37 32 117 38 94 2 -7 13 -35 25 -61z m1226
9 c19 -15 40 -67 34 -83 -10 -26 -28 -12 -52 40 -14 28 -27 55 -29 60 -5 9 29
-3 47 -17z m-849 -6 c0 -5 -4 -10 -10 -10 -5 0 -10 5 -10 10 0 6 5 10 10 10 6
0 10 -4 10 -10z m-835 -40 c-11 -18 -117 -67 -203 -94 -45 -14 -136 -33 -201
-43 l-119 -16 -33 24 -34 24 130 12 c148 14 232 31 360 73 101 33 109 34 100
20z m-717 -114 c26 -13 58 -33 72 -45 19 -16 10 -14 -34 9 -57 29 -109 39
-120 21 -3 -5 2 -15 11 -22 30 -26 90 -114 103 -153 18 -57 9 -140 -20 -171
-35 -37 -71 -33 -114 15 -20 22 -36 36 -36 32 0 -4 5 -13 11 -19 6 -6 9 -17 7
-24 -13 -38 -138 250 -138 317 0 37 33 71 75 76 50 5 134 -11 183 -36z m3701
29 c50 -25 53 -66 15 -181 -27 -79 -89 -214 -100 -214 -3 0 -2 5 2 11 4 7 -6
2 -22 -10 -48 -34 -86 -37 -118 -8 -24 23 -27 33 -29 99 -1 66 2 80 36 148 21
41 52 88 70 103 l32 28 -30 -6 c-23 -5 -26 -4 -15 4 13 9 12 11 -5 11 -39 -1
-106 -40 -161 -94 -42 -42 -51 -48 -37 -25 27 47 99 106 157 128 62 24 165 27
205 6z m-2059 -30 c0 -8 -2 -15 -4 -15 -2 0 -6 7 -10 15 -3 8 -1 15 4 15 6 0
10 -7 10 -15z m3067 -17 c-3 -7 -5 -2 -5 12 0 14 2 19 5 13 2 -7 2 -19 0 -25z
m-5064 -30 c-10 -67 -10 -152 0 -249 11 -98 -3 -120 -85 -127 -54 -4 -55 -4
-70 29 -39 85 -58 214 -39 271 16 48 60 87 123 109 80 28 81 27 71 -33z m4259
42 c44 -13 93 -52 113 -91 10 -19 15 -57 14 -116 -1 -157 -47 -233 -121 -202
-52 21 -61 46 -53 151 6 88 -7 197 -30 251 -9 20 18 23 77 7z m-1974 -65 c-11
-25 -28 -34 -28 -15 0 6 5 10 10 10 6 0 10 7 10 15 0 8 4 15 10 15 6 0 5 -10
-2 -25z m-26 -57 c-2 -10 -6 -18 -7 -18 -1 0 -5 8 -7 18 -3 11 0 19 7 19 7 0
10 -8 7 -19z m-2535 -64 c-16 -30 -8 -111 21 -209 28 -94 26 -97 -78 -98 -50
-1 -65 33 -65 150 0 88 1 93 30 124 27 28 76 58 98 59 4 0 2 -12 -6 -26z
m4800 -6 c49 -30 75 -79 76 -146 0 -56 -18 -133 -31 -130 -4 1 -15 -2 -26 -7
-12 -5 -21 -3 -27 6 -7 12 -9 12 -9 -1 0 -12 -2 -12 -9 -2 -4 7 -14 12 -22 10
-10 -2 -14 8 -13 42 2 119 10 200 19 200 7 0 7 3 0 8 -5 4 -16 18 -23 30 -12
22 -12 23 10 17 13 -4 37 -16 55 -27z m-2379 -75 c-32 -2 -84 -2 -115 0 -32 2
-6 3 57 3 63 0 89 -1 58 -3z m290 -260 c-3 -73 -4 -78 -25 -78 -27 0 -27 0
-19 -78 14 -120 65 -367 66 -321 1 5 10 52 21 104 16 79 48 253 75 418 l5 33
99 -3 99 -3 10 -50 c19 -94 80 -420 87 -460 11 -67 17 -63 34 20 9 44 27 130
40 191 13 62 20 119 17 128 -4 10 -18 16 -37 16 l-30 0 0 77 0 76 128 -6 c70
-4 151 -7 180 -7 l52 0 0 -85 0 -85 -39 0 -39 0 -25 -107 c-14 -60 -31 -138
-38 -176 l-13 -68 39 -39 39 -40 -42 -43 c-38 -39 -47 -57 -88 -193 -25 -82
-61 -195 -81 -251 -39 -114 -37 -113 -134 -97 l-36 6 -68 214 c-38 118 -72
214 -76 214 -4 0 -20 -37 -34 -82 -15 -46 -48 -140 -73 -210 l-46 -128 -67 0
-68 0 -40 128 c-22 70 -52 174 -66 232 -28 109 -46 149 -89 189 l-26 24 41 44
c46 50 46 26 -5 263 l-32 145 -42 3 -42 3 0 80 0 79 195 0 196 0 -3 -77z
m-1017 57 c93 -13 152 -41 218 -105 84 -80 132 -189 146 -335 5 -57 11 -71 45
-110 l38 -44 -38 -44 c-34 -38 -39 -51 -45 -110 -9 -91 -21 -137 -57 -207 -57
-115 -159 -194 -296 -230 -55 -14 -252 -34 -339 -35 l-33 0 0 95 c0 93 1 95
30 122 l30 26 0 148 0 147 -37 30 -37 29 42 48 42 48 0 178 0 179 -35 0 -35 0
0 84 0 85 33 4 c66 8 264 6 328 -3z m2179 -29 c41 -5 63 -15 87 -38 51 -49
138 -63 226 -37 16 5 17 -7 17 -160 l0 -166 -32 0 c-72 0 -78 6 -78 74 0 58
-2 62 -34 84 -31 21 -76 38 -148 56 l-28 6 0 -155 0 -155 24 -6 c13 -3 34 0
46 6 18 10 21 19 18 51 l-4 39 43 0 43 0 0 -65 c0 -61 2 -68 37 -106 34 -38
36 -42 19 -51 -43 -24 -56 -47 -56 -100 0 -70 -9 -82 -53 -74 -33 6 -36 9 -42
56 -7 49 -8 50 -41 50 l-34 0 0 -139 0 -139 68 -6 c37 -4 75 -9 84 -12 15 -5
18 6 20 88 l3 93 40 -2 c22 -1 55 -5 73 -8 l32 -6 0 -219 0 -219 -32 5 c-163
22 -514 60 -585 64 -2 0 -3 42 -3 93 l0 93 35 34 35 34 0 140 0 140 -44 41
-44 41 39 32 39 33 0 180 0 179 -29 0 c-17 0 -33 4 -36 10 -3 5 -3 44 1 86 l7
77 116 -7 c64 -4 141 -10 171 -15z m-2883 -71 l-2 -80 -37 0 -38 0 0 -189 0
-189 41 -34 40 -34 -40 -44 -41 -45 0 -138 0 -138 83 3 82 3 3 97 3 97 84 3
85 3 0 -221 0 -221 -287 -17 c-159 -9 -308 -18 -332 -20 l-44 -4 7 97 c7 92 9
97 42 132 l36 36 -4 138 -3 137 -38 34 -38 35 41 46 40 46 0 178 0 179 -40 0
-40 0 0 58 0 57 76 -3 c75 -4 75 -3 108 31 35 37 53 42 158 45 l58 2 -3 -80z
m-490 -48 l6 -72 -26 0 c-58 0 -57 3 -57 -194 l0 -182 35 -34 c19 -19 35 -39
35 -45 0 -6 -16 -26 -35 -45 l-35 -34 0 -143 0 -143 40 -25 40 -25 0 -89 c0
-105 14 -97 -171 -107 l-126 -7 -9 -66 -9 -66 -37 -3 c-36 -3 -38 -5 -38 -36
0 -59 21 -251 29 -259 9 -9 123 228 151 316 12 38 28 71 35 74 21 8 188 -15
195 -27 4 -6 18 -108 31 -226 20 -189 25 -213 37 -197 20 25 122 235 122 251
0 7 -13 12 -34 12 -19 0 -37 3 -39 8 -2 4 3 36 11 71 l14 63 42 -6 c22 -3 103
-18 178 -33 111 -22 137 -31 133 -43 -2 -8 -11 -40 -20 -71 -14 -52 -17 -55
-43 -52 -26 4 -30 -3 -150 -249 -143 -295 -193 -384 -213 -379 -8 2 -42 8 -76
14 l-62 11 -10 45 c-5 26 -24 119 -42 208 l-33 163 -76 -148 c-121 -234 -125
-239 -160 -234 -16 2 -30 6 -30 9 0 10 45 91 66 119 13 17 24 38 24 47 0 9 5
19 11 22 6 4 8 14 5 22 -3 8 -2 12 3 9 9 -6 51 83 51 108 0 9 -8 16 -17 16
-10 0 -28 3 -40 6 -18 5 -23 2 -23 -12 0 -9 -3 -14 -7 -11 -10 10 -35 -31 -27
-45 5 -7 3 -8 -6 -3 -10 6 -12 4 -7 -8 4 -11 1 -17 -7 -17 -8 0 -16 -6 -19
-12 -2 -7 -6 -11 -8 -8 -13 16 -94 202 -103 237 -8 31 -19 47 -47 65 -35 22
-37 27 -44 88 -11 106 -10 105 -58 105 l-42 0 -3 77 -3 77 143 3 143 3 -4 59
c-3 57 -2 60 33 92 35 32 36 35 37 106 2 124 -3 223 -10 228 -4 3 -20 15 -36
28 l-29 23 48 48 48 49 -5 164 c-4 89 -6 175 -7 191 0 25 -3 27 -43 27 -39 0
-43 2 -42 25 0 19 11 30 50 50 41 22 65 27 135 28 78 2 90 5 150 39 36 20 69
33 73 29 4 -4 11 -40 14 -79z m-1477 -12 l0 -90 -30 0 c-16 0 -30 -3 -30 -8 0
-18 52 -303 67 -369 10 -40 21 -73 27 -73 5 0 7 2 4 5 -3 3 1 36 8 72 26 121
73 408 80 481 l7 72 116 0 117 0 11 -91 c17 -135 106 -543 114 -522 4 10 18
97 33 193 14 96 29 190 32 208 5 32 5 32 -36 32 l-41 0 5 83 c2 45 5 85 5 90
1 10 311 9 311 -2 0 -5 20 -31 45 -59 33 -36 45 -58 45 -80 0 -30 -2 -31 -47
-34 l-48 -3 -26 -90 c-15 -50 -37 -142 -50 -204 l-24 -114 44 -38 43 -38 -41
-48 c-36 -43 -44 -63 -70 -173 -16 -69 -33 -146 -36 -172 l-7 -48 -46 40 c-25
22 -56 43 -70 47 -38 9 -95 -13 -146 -58 -53 -47 -42 -60 -97 109 -18 56 -36
102 -40 102 -4 0 -12 -21 -18 -47 -13 -53 -77 -280 -92 -330 -10 -31 -10 -31
-40 -16 -42 21 -110 21 -142 0 -34 -22 -67 -86 -67 -132 0 -28 -4 -35 -20 -35
-19 0 -20 7 -20 90 0 50 5 98 11 108 9 14 4 57 -25 193 -51 245 -50 242 -104
288 l-47 40 47 48 c40 41 46 53 42 78 -16 90 -66 331 -77 363 -11 33 -16 37
-49 40 -41 3 -36 -10 -54 140 l-5 42 215 0 216 0 0 -90z m5900 -115 c0 -166
-3 -205 -14 -205 -7 0 -34 3 -60 6 l-46 7 0 64 c0 61 -1 64 -32 83 -69 42
-170 34 -202 -15 -20 -30 -21 -85 -2 -128 13 -32 113 -134 240 -245 140 -123
196 -216 196 -325 0 -62 0 -62 -49 -104 -27 -23 -62 -66 -79 -95 -54 -96 -76
-116 -139 -124 -95 -12 -189 17 -269 82 -43 35 -54 32 -54 -15 0 -19 0 -19
-83 -6 l-39 6 4 209 c1 115 5 211 8 213 5 5 117 -16 144 -26 7 -3 16 -25 20
-49 14 -87 71 -140 158 -146 53 -4 59 -2 88 26 61 62 41 102 -127 258 -205
190 -241 236 -269 344 -30 119 -3 214 82 289 44 38 51 41 106 41 47 0 69 -6
106 -27 38 -23 59 -28 113 -28 55 0 72 4 105 27 21 15 48 41 59 58 11 16 23
30 28 30 4 0 7 -92 7 -205z m1030 -5 l0 -210 -70 0 -70 0 0 100 0 100 -81 0
-82 0 7 -46 c3 -26 6 -115 6 -198 l0 -151 45 -30 c25 -16 45 -34 45 -38 0 -5
-20 -27 -45 -49 l-45 -41 0 -208 0 -208 35 -28 35 -28 0 -99 c0 -85 -2 -97
-16 -92 -9 3 -20 6 -25 6 -5 0 -9 24 -9 54 0 48 -4 59 -34 90 -45 48 -100 50
-170 5 -27 -16 -49 -29 -51 -27 -1 2 -19 36 -40 76 -35 68 -36 74 -21 91 13
15 16 45 16 188 0 94 -3 178 -6 187 -3 9 -23 26 -45 38 -21 11 -40 27 -43 35
-3 8 15 28 44 50 l50 37 0 191 c0 106 -2 194 -4 196 -2 2 -43 3 -90 1 l-86 -3
0 -100 0 -99 -72 0 -73 0 0 210 0 210 448 0 447 0 0 -210z m-6412 -923 c2 -9
-2 -17 -10 -17 -15 -1 -65 -65 -103 -132 -39 -71 -74 -182 -81 -264 -7 -75
-15 -89 -34 -55 -42 79 55 369 152 457 41 37 70 41 76 11z m5581 -23 c111
-100 196 -377 146 -474 -9 -17 -17 -30 -18 -30 -2 0 -1 26 1 58 10 138 -105
388 -210 455 -15 11 -25 23 -22 28 13 21 55 6 103 -37z m-2660 -134 c-21 -69
-28 -86 -42 -113 -8 -16 -18 -24 -21 -18 -10 16 -56 140 -56 151 0 6 29 10 64
10 l65 0 -10 -30z m1717 -5 c64 -19 128 -74 161 -139 52 -102 29 -222 -66
-328 -22 -25 -41 -50 -41 -55 0 -5 16 -28 35 -50 41 -48 115 -88 145 -78 15 5
20 2 20 -12 0 -10 11 -36 24 -58 l24 -39 -115 -48 -116 -48 -54 46 c-29 25
-85 81 -124 123 l-71 78 -61 -17 -62 -17 -3 -44 c-2 -24 -1 -58 3 -76 5 -30 9
-33 41 -33 l35 0 -3 -62 -3 -63 -65 -18 c-70 -19 -218 -55 -262 -63 l-28 -5 0
69 c0 61 2 70 20 75 19 5 20 14 20 199 0 106 -3 243 -6 303 l-7 110 -43 -4
-44 -3 0 81 c0 57 4 83 13 85 6 2 46 9 87 15 41 6 140 27 220 46 80 19 154 36
165 38 44 10 114 6 161 -8z m-1996 -16 l0 -21 -417 5 c-675 9 -634 29 70 35
l347 3 0 -22z m1275 10 c4 -6 -7 -10 -27 -10 -32 1 -139 -4 -373 -14 -60 -3
-181 -8 -267 -11 l-158 -6 0 26 0 26 410 0 c260 -1 412 -4 415 -11z m-4300
-238 c109 -75 215 -163 209 -172 -6 -11 -49 11 -124 61 -96 65 -145 94 -134
79 58 -77 96 -122 138 -166 l50 -53 -29 0 c-18 0 -35 7 -41 18 -7 10 -48 62
-93 115 -87 105 -125 165 -137 212 l-7 29 49 -37 c27 -21 81 -59 119 -86z
m2217 98 l97 -12 31 -136 c51 -215 137 -542 155 -584 13 -31 20 -37 44 -37 29
0 29 -1 33 -61 3 -69 -3 -80 -40 -68 -55 18 -199 34 -256 29 l-58 -5 4 62 c4
70 7 76 42 76 23 0 24 3 19 31 -13 70 -12 69 -124 87 -148 25 -142 26 -167
-26 -12 -25 -22 -47 -22 -49 0 -3 14 -7 30 -11 30 -7 31 -8 28 -58 l-3 -52
-62 2 c-35 1 -102 11 -150 22 -49 12 -99 24 -112 27 -21 4 -22 9 -16 42 11 65
15 71 48 74 30 3 36 10 94 128 35 69 100 211 144 315 105 243 96 228 122 222
12 -3 66 -11 119 -18z m4197 -49 c-12 -29 -56 -98 -97 -153 -41 -56 -80 -114
-88 -129 -10 -19 -22 -28 -39 -28 -14 0 -25 4 -25 8 0 5 34 55 75 113 41 57
75 107 75 112 0 7 -53 -25 -170 -103 -81 -54 -81 -54 -72 -31 8 24 355 284
360 271 2 -5 -7 -32 -19 -60z m-2281 -81 l-3 -112 -49 -14 c-45 -13 -52 -13
-99 7 -61 26 -126 23 -191 -11 -61 -31 -91 -64 -121 -132 -23 -51 -27 -70 -23
-121 6 -72 24 -112 74 -160 69 -67 207 -85 288 -38 26 15 31 25 34 63 l3 45
-86 -4 -85 -5 0 72 c0 39 3 71 8 71 4 0 94 13 200 29 l192 28 0 -61 c0 -34 3
-125 7 -202 l6 -141 -58 -8 c-39 -4 -74 -17 -109 -39 -127 -81 -371 -72 -508
19 -56 37 -125 131 -149 202 -38 114 -23 256 38 377 77 152 284 258 445 228
53 -10 64 -9 71 3 5 10 25 15 63 15 l55 0 -3 -111z m-1233 55 c239 -13 339
-44 409 -126 64 -74 89 -214 54 -298 -19 -45 -73 -97 -109 -105 -16 -4 -31
-11 -34 -15 -7 -12 47 -119 80 -158 15 -18 41 -36 58 -40 32 -8 32 -9 35 -76
3 -67 3 -68 -20 -62 -13 4 -60 13 -105 22 -45 8 -94 21 -108 28 -35 18 -67 67
-122 183 l-45 94 -41 -3 -42 -3 -3 -83 -3 -82 31 -7 c31 -6 31 -6 28 -62 l-3
-56 -115 4 c-63 2 -135 6 -160 10 l-45 6 -1 57 c-1 57 0 57 30 60 l31 3 3 288
2 287 -30 0 -30 0 0 76 0 77 78 -7 c42 -3 122 -9 177 -12z m-2195 -101 c0 -16
-104 -105 -158 -137 -132 -77 -258 -123 -354 -128 -27 -2 -48 -6 -48 -10 0
-15 81 -12 175 8 81 16 85 17 64 4 -15 -9 -169 -50 -196 -52 -11 -1 -17 -30
-16 -75 0 -6 -12 -13 -28 -15 -29 -5 -42 15 -16 25 9 4 8 8 -3 17 -11 9 -12
13 -2 17 6 2 12 9 12 14 0 6 -5 7 -11 4 -7 -5 -8 5 -4 29 5 26 4 36 -6 36 -23
0 1 14 29 16 188 14 379 92 486 199 67 68 76 73 76 48z m5030 -122 c117 -76
257 -115 465 -130 15 -1 13 -151 -2 -151 -9 0 -13 20 -13 64 0 36 -4 68 -10
71 -6 4 -10 -13 -10 -44 0 -54 -19 -70 -39 -32 -8 13 -27 21 -67 26 -32 4 -63
9 -71 12 -28 11 1 23 55 24 64 1 62 2 -78 39 -130 35 -252 102 -327 179 -35
36 -63 69 -63 75 0 6 22 -13 50 -42 27 -29 77 -70 110 -91z m-4881 -120 c29
-70 39 -107 32 -118 -6 -12 -19 12 -51 92 -23 59 -44 124 -46 144 l-5 36 15
-26 c8 -14 33 -71 55 -128z m4590 11 c-28 -67 -55 -122 -60 -122 -5 0 -9 2 -9
4 0 3 48 124 97 244 3 8 9 10 15 4 5 -5 -12 -58 -43 -130z m721 -163 c0 -5
-24 -8 -52 -8 -41 1 -46 3 -24 8 47 10 76 10 76 0z m-6018 -113 l-19 -33 47 5
c28 2 57 -1 71 -9 23 -13 22 -13 -31 -24 l-55 -11 30 -16 30 -16 -38 1 c-28 1
-36 5 -32 15 3 7 0 12 -6 10 -6 -2 -10 -7 -10 -11 1 -4 -6 -21 -15 -38 -8 -17
-13 -33 -10 -37 3 -3 6 0 6 7 0 7 4 10 9 6 6 -3 15 4 21 15 10 19 17 21 53 15
65 -10 77 -15 77 -32 0 -12 -3 -13 -13 -4 -11 8 -13 2 -12 -32 2 -49 -24 -119
-42 -112 -7 2 -15 0 -18 -6 -4 -5 -11 -6 -17 -3 -7 5 -9 1 -5 -9 4 -12 1 -17
-11 -18 -13 0 -13 -2 -3 -6 8 -3 20 2 27 12 14 19 38 17 26 -2 -7 -11 -94 -38
-152 -46 -22 -4 -25 -9 -28 -55 -2 -35 -8 -52 -19 -56 -30 -12 -38 14 -41 127
-4 123 11 204 53 287 39 78 69 107 110 108 l37 1 -20 -33z m6127 -1 c36 -42
71 -108 96 -185 20 -58 26 -194 12 -262 -7 -33 -12 -38 -35 -38 -26 0 -27 2
-27 58 l0 57 -45 5 c-35 4 -46 9 -48 25 -8 48 -37 108 -64 130 -15 13 -28 27
-28 31 0 4 -7 12 -16 18 -14 10 -14 16 -1 54 l15 42 -41 0 c-26 0 -37 4 -31 9
10 11 86 32 120 34 22 1 22 17 1 45 -7 9 -1 12 26 12 28 0 41 -7 66 -35z
m-6012 -197 c-3 -8 -6 -5 -6 6 -1 11 2 17 5 13 3 -3 4 -12 1 -19z"/>
<path d="M6988 7179 c-10 -5 -18 -15 -18 -22 0 -15 49 -38 64 -30 6 3 8 3 4
-2 -4 -4 30 -33 75 -63 45 -30 93 -63 106 -73 28 -22 61 -25 61 -5 0 8 -12 23
-27 35 -90 68 -139 101 -150 101 -6 0 -18 8 -25 18 -11 15 -62 53 -70 52 -2 0
-11 -5 -20 -11z"/>
<path d="M6698 6937 c9 -11 11 -27 7 -48 -5 -22 -4 -29 4 -25 6 4 9 12 6 17
-4 5 -2 9 3 9 16 0 6 42 -14 53 -17 9 -17 9 -6 -6z"/>
<path d="M8167 5729 c4 -13 8 -18 11 -10 2 7 -1 18 -6 23 -8 8 -9 4 -5 -13z"/>
<path d="M3514 8584 c-34 -20 -74 -47 -90 -60 -24 -21 10 -1 142 83 44 28 3
10 -52 -23z"/>
<path d="M4650 8570 c8 -5 20 -10 25 -10 6 0 3 5 -5 10 -8 5 -19 10 -25 10 -5
0 -3 -5 5 -10z"/>
<path d="M4698 8553 c7 -3 16 -2 19 1 4 3 -2 6 -13 5 -11 0 -14 -3 -6 -6z"/>
<path d="M4878 8408 c5 -5 16 -8 23 -6 8 3 3 7 -10 11 -17 4 -21 3 -13 -5z"/>
<path d="M3505 8341 c-3 -5 -2 -12 3 -15 5 -3 9 1 9 9 0 17 -3 19 -12 6z"/>
<path d="M3592 8281 c-11 -6 -9 -9 6 -13 15 -4 19 -2 15 8 -6 16 -4 16 -21 5z"/>
<path d="M3683 8273 c9 -2 23 -2 30 0 6 3 -1 5 -18 5 -16 0 -22 -2 -12 -5z"/>
<path d="M5390 5585 c-103 -71 -397 -73 -560 -3 l-45 19 29 -30 c30 -32 142
-94 189 -105 l27 -6 0 -293 c0 -160 5 -332 12 -382 6 -49 11 -100 12 -112 2
-43 23 0 35 72 10 56 27 427 30 660 l1 40 58 14 c83 19 171 64 217 110 45 47
44 49 -5 16z"/>
<path d="M2735 6244 c-9 -15 -12 -23 -6 -20 11 7 35 46 28 46 -3 0 -12 -12
-22 -26z"/>
<path d="M2668 6150 c-22 -39 -15 -39 12 0 12 17 18 30 13 30 -4 0 -16 -14
-25 -30z"/>
<path d="M2629 6093 c-13 -16 -12 -17 4 -4 16 13 21 21 13 21 -2 0 -10 -8 -17
-17z"/>
<path d="M4566 3643 c-3 -4 -6 -174 -6 -380 0 -412 -4 -388 63 -360 42 18 101
84 118 133 10 27 14 91 14 214 0 206 -11 251 -81 329 -41 46 -95 77 -108 64z"/>
<path d="M3569 1981 c-12 -20 -22 -40 -23 -46 -4 -22 -47 -95 -55 -95 -5 0
-12 30 -16 68 -10 99 -11 102 -50 102 -19 0 -36 -4 -39 -9 -3 -4 6 -71 20
-147 27 -144 37 -164 81 -164 19 0 31 15 67 89 24 49 41 92 38 95 -3 3 0 6 6
6 7 0 12 7 12 15 0 8 4 15 8 15 8 0 33 55 36 82 2 12 -7 17 -31 20 -29 4 -36
0 -54 -31z"/>
<path d="M6925 2259 c-27 -5 -77 -17 -110 -27 l-60 -18 4 -110 c1 -60 5 -112
7 -116 13 -20 217 53 261 94 48 45 53 135 10 162 -33 21 -57 24 -112 15z"/>
<path d="M6905 1961 c-44 -13 -55 -20 -40 -24 11 -3 2 -5 -19 -4 -22 1 -41 -3
-43 -9 -6 -18 35 -24 89 -14 57 11 95 0 108 -32 5 -13 9 -19 9 -13 1 5 9 -6
19 -25 41 -76 183 -163 215 -131 6 6 19 11 29 11 9 0 22 9 28 20 9 16 8 20 -4
20 -28 0 -126 54 -132 73 -3 11 -12 16 -20 13 -8 -3 -14 1 -14 9 0 8 -11 22
-25 31 -14 9 -25 23 -25 31 0 9 -6 12 -19 8 -12 -3 -21 0 -25 10 -3 9 -11 13
-17 10 -6 -4 -17 2 -25 14 -18 24 -12 24 -89 2z"/>
<path d="M6757 1914 c-3 -4 -33 -6 -67 -5 l-60 1 0 -165 c0 -91 0 -168 1 -171
0 -4 -5 -11 -13 -16 -14 -11 -11 -10 115 17 74 16 103 35 53 35 -29 0 -32 9
-42 115 -3 44 -10 89 -14 100 -12 32 6 65 34 65 18 0 24 4 20 15 -6 16 -17 19
-27 9z"/>
<path d="M4251 2079 c-1 -9 -21 -64 -46 -122 -44 -105 -44 -107 -22 -112 52
-12 122 -23 126 -19 2 2 -4 41 -14 86 -26 121 -43 185 -44 167z"/>
<path d="M3993 1819 c-15 -29 -43 -81 -60 -116 -20 -39 -42 -68 -58 -75 -14
-6 -25 -14 -25 -18 0 -4 33 -12 73 -19 39 -7 82 -15 95 -17 33 -6 27 12 -8 25
-16 5 -30 17 -30 26 0 8 20 46 45 83 49 74 79 139 67 145 -4 3 -21 8 -39 12
-31 6 -33 4 -60 -46z"/>
<path d="M4388 1834 c-3 -2 8 -64 23 -137 36 -167 36 -171 5 -163 -14 3 -27 2
-30 -3 -5 -8 62 -22 162 -34 39 -4 52 8 18 17 -26 6 -29 13 -65 156 -33 127
-35 132 -51 140 -8 4 -25 12 -36 18 -12 6 -24 9 -26 6z"/>
<path d="M5609 1807 c-25 -12 -25 -13 -14 -62 16 -71 58 -147 101 -185 125
-109 345 -132 479 -49 28 17 67 34 88 37 l38 5 -4 91 c-4 78 -22 193 -26 160
0 -5 -7 -19 -15 -29 -12 -16 -16 -17 -29 -6 -28 23 -37 2 -37 -84 l0 -85 -39
-24 c-57 -37 -116 -49 -197 -42 -87 7 -116 17 -169 61 -45 37 -99 129 -109
188 -7 40 -20 45 -67 24z"/>
<path d="M4987 2053 c-4 -3 -7 -55 -7 -115 l0 -108 103 0 c82 0 108 4 133 19
37 22 59 70 50 107 -10 38 -56 80 -102 93 -43 12 -167 15 -177 4z"/>
<path d="M5311 1822 c0 -7 -5 -11 -10 -7 -5 3 -33 -4 -63 -16 -47 -19 -65 -20
-163 -15 -60 4 -135 9 -166 13 l-56 5 -8 -151 c-6 -125 -10 -153 -23 -160 -28
-16 -6 -24 78 -29 55 -3 80 -1 80 7 0 6 -8 11 -19 11 -26 0 -30 26 -24 151 l6
110 88 -2 c52 -1 92 -6 97 -13 5 -6 24 -48 42 -94 18 -45 45 -100 60 -121 31
-43 90 -71 148 -71 l37 0 -37 36 c-60 56 -85 94 -112 170 -14 39 -26 76 -26
81 0 5 17 15 38 22 20 8 48 23 62 34 24 19 24 20 3 15 -17 -5 -23 -1 -26 16
-2 11 -5 15 -6 8z"/>
<path d="M2172 1358 c-4 -55 -11 -73 -26 -70 -9 2 -16 -2 -16 -8 0 -5 7 -10
16 -10 24 0 54 19 54 35 0 7 5 15 11 17 5 2 -1 14 -14 26 -15 14 -24 18 -25
10z"/>
</g>
</svg>
